# xmcd CD database file
#
# Track frame offsets:
#	150
#	6492
#	26310
#	46335
#	64725
#	82677
#	87577
#	109585
#	132320
#	149865
#	155115
#	176270
#	201320
#	223115
#	245567
#
# Disc length: 3451 seconds
#
# Revision: 0
# Processed by: cddbd v1.4PL0 Copyright (c) Steve Scherf et al.
# Submitted via: CDex 1.50beta9
#
DISCID=d70d790f
DTITLE=Courtney Pine - back in the day
DYEAR=2000
DGENRE=Jazz
TTITLE0=Intro - Search
TTITLE1=The Jazzstep
TTITLE2=Hardtimes (Curtis Mayfield)
TTITLE3=Brotherman
TTITLE4=Keep It Real
TTITLE5=Interlude - Straight Ahead 
TTITLE6=Lady Day and (John Coltrane) (Gil Scott Heron)
TTITLE7=My Father's Place
TTITLE8=Yeah! Yeah!!
TTITLE9=Interlude - Quartet No. 1
TTITLE10=Inner State (Of Mind)
TTITLE11=Power To The People
TTITLE12=Love And Affection
TTITLE13=Third Man
TTITLE14=Meditate - (Outro)
EXTD=YEAR: 2000
EXTT0=
EXTT1=
EXTT2=
EXTT3=
EXTT4=
EXTT5=
EXTT6=
EXTT7=
EXTT8=
EXTT9=
EXTT10=
EXTT11=
EXTT12=
EXTT13=
EXTT14=
PLAYORDER=
